<?xml version="1.0" encoding="utf-8"?>
<!-- Generator: Adobe Illustrator 16.0.0, SVG Export Plug-In . SVG Version: 6.00 Build 0)  -->
<!DOCTYPE svg PUBLIC "-//W3C//DTD SVG 1.1//EN" "http://www.w3.org/Graphics/SVG/1.1/DTD/svg11.dtd">
<svg version="1.1" xmlns="http://www.w3.org/2000/svg" xmlns:xlink="http://www.w3.org/1999/xlink" x="0px" y="0px" width="1280px"
	 height="800px" viewBox="0 0 1280 800" enable-background="new 0 0 1280 800" xml:space="preserve">
<g id="Model" display="none">
	<g display="inline">
		<g>
			<defs>
				<rect id="SVGID_1_" x="-416.762" y="516.46" width="454.515" height="284.072"/>
			</defs>
			<clipPath id="SVGID_2_">
				<use xlink:href="#SVGID_1_"  overflow="visible"/>
			</clipPath>
			<g clip-path="url(#SVGID_2_)">
				<defs>
					<path id="SVGID_3_" d="M-416.762,682.997v117.535V682.997z"/>
				</defs>
				<clipPath id="SVGID_4_">
					<use xlink:href="#SVGID_3_"  overflow="visible"/>
				</clipPath>
			</g>
			<rect x="-416.762" y="516.46" clip-path="url(#SVGID_2_)" fill="#343434" width="454.515" height="284.072"/>
			<path clip-path="url(#SVGID_2_)" fill="#FCFAFA" d="M-326.569,654.235h296.5H-326.569z"/>
			
				<line clip-path="url(#SVGID_2_)" fill="none" stroke="#FFFFFF" stroke-width="2" stroke-miterlimit="10" x1="-30.069" y1="654.235" x2="-326.569" y2="654.235"/>
			<rect x="-155.416" y="592.805" clip-path="url(#SVGID_2_)" fill="#D31E43" width="125.347" height="61.075"/>
			<g clip-path="url(#SVGID_2_)">
				
					<text transform="matrix(1.0051 0 0 1 -326.6226 639.2461)" fill="#FFFFFF" font-family="'HelveticaNeueLTStd-MdCn'" font-size="52.9577">ACCESS CODE</text>
			</g>
			<g clip-path="url(#SVGID_2_)">
				
					<text transform="matrix(1.0051 0 0 1 -368.0874 637.4453)" fill="#D31E43" font-family="'HelveticaNeueLTStd-MdCn'" font-size="52.9577">&lt;</text>
			</g>
			<g clip-path="url(#SVGID_2_)">
				
					<text transform="matrix(-1.0051 0 0 1 5.7949 637.4707)" fill="#D31E43" font-family="'HelveticaNeueLTStd-MdCn'" font-size="52.9577">&lt;</text>
			</g>
			<g clip-path="url(#SVGID_2_)">
				<text transform="matrix(1.0051 0 0 1 -326.5684 674.1211)"><tspan x="0" y="0" fill="#FFFFFF" font-family="'HelveticaNeueLTStd-ThCn'" font-size="17.7545" letter-spacing="45.766">S</tspan><tspan x="54.702" y="0" fill="#FFFFFF" font-family="'HelveticaNeueLTStd-ThCn'" font-size="17.7545" letter-spacing="45.766">CH</tspan><tspan x="165.081" y="0" fill="#FFFFFF" font-family="'HelveticaNeueLTStd-ThCn'" font-size="17.7545" letter-spacing="45.766">OO</tspan><tspan x="276.473" y="0" fill="#FFFFFF" font-family="'HelveticaNeueLTStd-ThCn'" font-size="17.7545">L</tspan></text>
			</g>
		</g>
	</g>
</g>
<g id="BackGround">
	<rect class="background" fill="#343434" width="1280" height="800"/>
</g>
<g id="Textes">
	<g id="Traits">
		<line fill="#FCFAFA" stroke="#FFFFFF" stroke-width="2" stroke-miterlimit="10" x1="1089" y1="388" x2="254" y2="388"/>
	</g>
	<rect x="736" y="215" fill="#D31E43" width="353" height="172"/>
	<g>
		<path fill="#FFFFFF" d="M282.929,239.3h21.886l28.182,106.485h-17.838l-6.596-26.1h-31.33l-6.896,26.1h-17.838L282.929,239.3z
			 M305.714,306.114l-12.292-52.497h-0.3l-12.742,52.497H305.714z"/>
		<path fill="#FFFFFF" d="M406.297,307.605v2.237c0,19.239-7.795,38.03-32.979,38.03c-26.982,0-35.377-17.3-35.377-55.331
			c0-38.031,8.395-55.331,35.527-55.331c30.43,0,32.229,22.371,32.229,33.407v1.938h-17.089v-1.79c0-9.843-2.998-21.178-15.29-20.73
			c-12.592,0-18.288,7.755-18.288,42.057c0,34.302,5.696,42.952,18.288,42.952c14.241,0,15.89-15.809,15.89-25.652v-1.79H406.297z"
			/>
		<path fill="#FFFFFF" d="M484.095,307.605v2.237c0,19.239-7.795,38.03-32.979,38.03c-26.982,0-35.377-17.3-35.377-55.331
			c0-38.031,8.395-55.331,35.527-55.331c30.43,0,32.229,22.371,32.229,33.407v1.938h-17.089v-1.79c0-9.843-2.998-21.178-15.29-20.73
			c-12.592,0-18.288,7.755-18.288,42.057c0,34.302,5.696,42.952,18.288,42.952c14.241,0,15.89-15.809,15.89-25.652v-1.79H484.095z"
			/>
		<path fill="#FFFFFF" d="M496.086,239.3h57.862v14.317h-40.773v29.529h38.375v14.317h-38.375v34.004h41.973v14.317h-59.062V239.3z"
			/>
		<path fill="#FFFFFF" d="M581.378,312.825v2.685c0,12.975,5.696,19.537,17.539,19.537c10.793,0,16.189-7.606,16.189-15.51
			c0-11.186-5.696-16.107-15.29-18.941l-11.692-4.026c-15.59-5.966-22.335-14.02-22.335-29.231
			c0-19.388,13.191-30.126,33.278-30.126c27.432,0,30.28,17.001,30.28,28.038v2.386h-17.089v-2.237
			c0-9.694-4.347-15.361-14.99-15.361c-7.345,0-14.391,4.027-14.391,15.361c0,9.098,4.647,13.721,16.04,18.046l11.542,4.176
			c15.14,5.369,21.736,13.572,21.736,28.188c0,22.669-13.791,32.065-35.377,32.065c-26.533,0-32.529-17.599-32.529-32.512v-2.536
			H581.378z"/>
		<path fill="#FFFFFF" d="M659.177,312.825v2.685c0,12.975,5.695,19.537,17.538,19.537c10.793,0,16.189-7.606,16.189-15.51
			c0-11.186-5.696-16.107-15.29-18.941l-11.692-4.026c-15.59-5.966-22.336-14.02-22.336-29.231
			c0-19.388,13.192-30.126,33.278-30.126c27.433,0,30.281,17.001,30.281,28.038v2.386h-17.09v-2.237
			c0-9.694-4.347-15.361-14.99-15.361c-7.345,0-14.391,4.027-14.391,15.361c0,9.098,4.647,13.721,16.04,18.046l11.542,4.176
			c15.141,5.369,21.736,13.572,21.736,28.188c0,22.669-13.791,32.065-35.377,32.065c-26.532,0-32.528-17.599-32.528-32.512v-2.536
			H659.177z"/>
		<path fill="#FFFFFF" d="M825.564,307.605v2.237c0,19.239-7.795,38.03-32.979,38.03c-26.982,0-35.377-17.3-35.377-55.331
			c0-38.031,8.395-55.331,35.526-55.331c30.431,0,32.229,22.371,32.229,33.407v1.938h-17.089v-1.79
			c0-9.843-2.998-21.178-15.29-20.73c-12.592,0-18.288,7.755-18.288,42.057c0,34.302,5.696,42.952,18.288,42.952
			c14.241,0,15.89-15.809,15.89-25.652v-1.79H825.564z"/>
		<path fill="#FFFFFF" d="M835.008,292.542c0-38.031,10.793-55.331,35.377-55.331s35.377,17.3,35.377,55.331
			c0,38.03-10.793,55.331-35.377,55.331S835.008,330.573,835.008,292.542z M888.673,292.095c0-35.793-8.095-42.057-18.288-42.057
			s-18.288,6.264-18.288,42.057c0,36.688,8.095,42.952,18.288,42.952S888.673,328.783,888.673,292.095z"/>
		<path fill="#FFFFFF" d="M920.901,239.3h30.43c33.578,0,37.775,21.774,37.775,53.243s-4.197,53.243-37.775,53.243h-30.43V239.3z
			 M937.989,332.959h14.092c14.09,0,19.937-9.247,19.937-40.417c0-29.977-5.097-40.417-19.937-40.417h-14.092V332.959z"/>
		<path fill="#FFFFFF" d="M1004.245,239.3h57.863v14.317h-40.773v29.529h38.375v14.317h-38.375v34.004h41.973v14.317h-59.063V239.3z
			"/>
	</g>
	<g>
		<path fill="#D31E43" d="M144.045,297.535l75.851-33.706v12.826l-60.561,26.397l60.561,26.398v12.826l-75.851-33.705V297.535z"/>
	</g>
	<g>
		<path fill="#D31E43" d="M1182.955,308.571l-75.852,33.705v-12.826l60.561-26.398l-60.561-26.397v-12.826l75.852,33.706V308.571z"
			/>
	</g>
	<g id="School">
		<g>
			<path fill="#FFFFFF" d="M257.87,434.85c0,4.55,2.966,8.051,8.143,8.051c4.976,0,8.293-3.551,8.293-8.101
				c0-4.65-2.513-6.251-6.534-7.65l-4.071-1.4c-4.725-1.601-7.288-3.9-7.288-8.751c0-5.75,3.971-9.3,9.6-9.3
				c6.635,0,9.6,3.75,9.6,9.7h-2.111c0-4.801-2.212-8.001-7.288-8.001c-4.021,0-7.69,1.851-7.69,7.401c0,3.95,2.162,5.85,5.278,6.9
				l5.328,1.85c4.624,1.601,7.288,3.851,7.288,9.101c0,6.351-4.725,9.95-10.404,9.95c-8.293,0-10.253-5.8-10.253-9.25v-2.351h2.111
				V434.85z"/>
			<path fill="#FFFFFF" d="M430.198,418.549c0-4.801-2.563-9.151-7.841-9.151c-7.137,0-9.5,6.65-9.5,16.701
				c0,9.601,1.96,16.802,9.198,16.802c6.936,0,8.595-8.101,8.595-10.901h2.111c0,4.2-2.111,12.601-11.058,12.601
				c-7.791,0-10.957-6.85-10.957-18.4c0-11.201,3.167-18.501,11.51-18.501c8.394,0,10.053,7.35,10.053,10.851H430.198z"/>
			<path fill="#FFFFFF" d="M567.694,408.298h2.111v15.651h15.732v-15.651h2.111V444h-2.111v-18.151h-15.732V444h-2.111V408.298z"/>
			<path fill="#FFFFFF" d="M746.456,426.148c0,15.651-6.484,18.451-11.561,18.451c-6.886,0-11.61-4.6-11.61-18.451
				c0-13.851,5.026-18.45,11.61-18.45C742.033,407.698,746.456,412.298,746.456,426.148z M725.396,426.148
				c0,9.801,2.01,16.752,9.499,16.752c6.585,0,9.449-5.4,9.449-16.752c0-9.65-2.161-16.751-9.449-16.751
				C727.858,409.397,725.396,416.349,725.396,426.148z"/>
			<path fill="#FFFFFF" d="M904.107,426.148c0,15.651-6.484,18.451-11.561,18.451c-6.886,0-11.61-4.6-11.61-18.451
				c0-13.851,5.026-18.45,11.61-18.45C899.685,407.698,904.107,412.298,904.107,426.148z M883.047,426.148
				c0,9.801,2.011,16.752,9.5,16.752c6.584,0,9.449-5.4,9.449-16.752c0-9.65-2.161-16.751-9.449-16.751
				C885.51,409.397,883.047,416.349,883.047,426.148z"/>
			<path fill="#FFFFFF" d="M1039.743,408.298h2.11V442.1h15.028v1.9h-17.139V408.298z"/>
		</g>
	</g>
	<g>
	</g>
	<g>
	</g>
	<g>
	</g>
	<g>
	</g>
	<g>
	</g>
	<g>
	</g>
	<g>
	</g>
	<g>
	</g>
	<g>
	</g>
	<g>
	</g>
	<g>
	</g>
	<g>
	</g>
	<g>
	</g>
	<g>
	</g>
	<g>
	</g>
</g>
</svg>
